# xmcd CD database file
#
# Track frame offsets:
#	150
#	51702
#	64155
#	77675
#	108015
#	119742
#	131007
#	144147
#	162380
#	184182
#	194050
#	229285
#	248902
#	274115
#
# Disc length: 3897 seconds
#
# Revision: 1
# Processed by: cddbd v1.5.2PL0 Copyright (c) Steve Scherf et al.
# Submitted via: CDex 1.51
#
DISCID=d50f370e
DTITLE=Bernstein - Leonard Bernstein - Vol.08
DYEAR=1900
DGENRE=Classique
TTITLE0=On the Town - Opening - New York, New York  [Betty Comden, Adolph Green, lyricists]
TTITLE1=On the Town - Come up to my Place
TTITLE2=On the Town - Carried Away
TTITLE3=On the Town - Lonely Town
TTITLE4=On the Town - Carnegie Hall  (Do-Do-Re-Do)
TTITLE5=On the Town - I can Cook, too
TTITLE6=On the Town - Lucky to be Me
TTITLE7=On the Town - Dance - Times Square
TTITLE8=On the Town - Night Club Sequence - a) So Long Baby - b) I'm Blue - c) Ya got Me
TTITLE9=On the Town - I Understand
TTITLE10=On the Town - Ballet - The Imaginary Coney Island - a) Subway River - b) Dance of the Great Lover - c) Pas de deux
TTITLE11=On the Town - Some other Time
TTITLE12=On the Town - Dance - The Real Coney Island
TTITLE13=On the Town - Overture to the Town
EXTD=
EXTT0=
EXTT1=
EXTT2=
EXTT3=
EXTT4=
EXTT5=
EXTT6=
EXTT7=
EXTT8=
EXTT9=
EXTT10=
EXTT11=
EXTT12=
EXTT13=
PLAYORDER=
